<svg width="496" height="785" viewBox="0 0 496 785" fill="none" xmlns="http://www.w3.org/2000/svg">
<path d="M22.1989 397.271C77.3786 402.079 152.644 408.778 182.44 438.791C184.942 441.311 188.668 442.67 192.35 442.008C199.322 440.752 204.957 436.133 207 430L207.425 428.725C208.354 425.937 207.853 422.92 206.06 420.499L190.71 407.655L378.316 417.041C398.811 418.127 421.817 423.733 440.945 428.631L166.859 770.574C143.273 800.092 105.607 780.765 119.335 744.572L224.238 459.922H25.3456C10.5608 459.922 0.00012064 449.731 0 436.024C0 428.295 3.16799 421.266 9.15236 413.533L22.1989 397.271ZM329.14 14.6772C352.726 -15.1932 390.392 4.13405 376.662 40.3297L271.761 324.978H470.652C485.438 324.978 496 335.521 496 348.875C496 356.957 494.138 365.272 486.848 371.366C482.5 375 477 376 474.12 376.565C439.134 383.427 365.5 386.813 343.574 373.238L348.703 366.312C349.875 364.729 350.357 362.812 350.058 360.928L349.982 360.448C349.232 355.723 345.956 351.63 341.216 349.495C339.383 348.669 337.294 348.501 335.321 349C296.141 358.904 200.318 373.092 105.593 356.031C93.4479 354.919 76.4146 353.371 58.6918 351.783L329.14 14.6772Z" fill="white"/>
</svg>
