<svg width="496" height="785" viewBox="0 0 496 785" fill="none" xmlns="http://www.w3.org/2000/svg">
<path d="M22.1989 397.271C77.3786 402.079 151.833 415.575 181.63 445.587C184.132 448.108 187.858 449.467 191.54 448.804C198.512 447.548 204.146 442.93 206.19 436.797L206.615 435.521C207.544 432.733 207.043 429.717 205.25 427.295L190.71 407.655L378.316 417.041C398.811 418.127 421.817 423.733 440.945 428.631L166.859 770.574C143.273 800.092 105.607 780.765 119.335 744.572L224.238 459.922H25.3456C10.5608 459.922 0.00012064 449.731 0 436.024C0 428.295 3.16799 421.266 9.15236 413.533L22.1989 397.271ZM329.14 14.6772C352.726 -15.1932 390.392 4.13405 376.662 40.3297L271.761 324.978H470.652C485.438 324.978 496 335.521 496 348.875C496 356.957 492.831 363.985 486.848 371.366L479.259 380.832C478.595 379.5 477.756 378.296 476.707 377.295C476.043 376.661 475.077 376.439 474.12 376.565C438.773 381.223 365.499 386.813 343.574 373.238L348.703 366.312C349.875 364.729 350.357 362.812 350.058 360.928L349.982 360.448C349.232 355.723 345.956 351.63 341.216 349.495C339.383 348.669 337.294 348.501 335.321 349C296.141 358.904 200.318 373.092 105.593 356.031C93.4479 354.919 76.4146 353.371 58.6918 351.783L329.14 14.6772Z" fill="white"/>
</svg>
